PathFileType	4	(X/Y/Z)	./resultDataOpenSim/trcMotMarkerGrf/sub10/qtm-14-03.trc
DataRate	CameraRate	NumFrames	NumMarkers	Units	OrigDataRate	OrigDataStartFrame	OrigNumFrames
250.000000	250.000000	7	24	m	250.000000	122	484
Frame#	Time	L.Toe.Tip			R.Toe.Tip			L.Ankle.Lat			R.Ankle.Lat			L.Ankle.Med			R.Ankle.Med			L.Heel			R.Heel			L.Knee.Lat			R.Knee.Lat			L.Knee.Med			R.Knee.Med			L.Thigh.Upper			R.Thigh.Upper			L.ASIS			R.ASIS			V.Sacral			L.Acromium			R.Acromium			C7			L.Elbow			R.Elbow			L.Wrist.Lat			R.Wrist.Lat
		X1	Y1	Z1	X2	Y2	Z2	X3	Y3	Z3	X4	Y4	Z4	X5	Y5	Z5	X6	Y6	Z6	X7	Y7	Z7	X8	Y8	Z8	X9	Y9	Z9	X10	Y10	Z10	X11	Y11	Z11	X12	Y12	Z12	X13	Y13	Z13	X14	Y14	Z14	X15	Y15	Z15	X16	Y16	Z16	X17	Y17	Z17	X18	Y18	Z18	X19	Y19	Z19	X20	Y20	Z20	X21	Y21	Z21	X22	Y22	Z22	X23	Y23	Z23	X24	Y24	Z24

122	0.484	-0.34771677	0.073895674	-0.14267529	-0.77491572	0.039050649	-0.030120151	-0.48304574	0.0760603	-0.1640353	-0.91148848	0.05397549	0.019447158	-0.47236056	0.10251342	-0.080370676	-0.89850627	0.085117849	-0.063602408	-0.53710747	0.033999107	-0.11509527	-0.96707993	0.033275206	-0.026383481	-0.51575746	0.46153532	-0.18714403	-0.80991123	0.44507607	0.07288998	-0.50361275	0.44455924	-0.067657257	-0.79917104	0.44927118	-0.057966192	-0.65067071	0.8259864	-0.24220109	-0.744329	0.85574222	0.13089908	-0.61578542	0.93408622	-0.1660887	-0.6536591	0.94492585	0.074503031	-0.82913411	0.95733615	-0.085970004	-0.65167467	1.4054968	-0.20764828	-0.69183567	1.4084414	0.11406423	-0.75457912	1.4385384	-0.057909939	-0.79085802	1.0969947	-0.30170372	-0.75472593	1.0571481	0.17986375	-0.67936336	0.87601465	-0.29010505	-0.55799797	0.9042239	0.2020828
123	0.488	-0.32981248	0.077047675	-0.13950292	-0.77480205	0.038931053	-0.030198874	-0.46507635	0.075355804	-0.16185327	-0.91130543	0.054080394	0.019322776	-0.45552184	0.10259688	-0.078140871	-0.89826883	0.085154454	-0.063890724	-0.51807822	0.032086881	-0.11329541	-0.96703709	0.033555575	-0.0265009	-0.50929058	0.45950953	-0.18712219	-0.80638054	0.44421292	0.072680723	-0.49735512	0.44288325	-0.067538158	-0.79538901	0.44861524	-0.058108717	-0.64383758	0.82472527	-0.24204868	-0.7392265	0.85466557	0.13092138	-0.60921479	0.93263766	-0.16605478	-0.64799625	0.943693	0.07468682	-0.82325301	0.95564414	-0.086621049	-0.64575936	1.4039565	-0.20729598	-0.6857759	1.4069194	0.1144629	-0.74899855	1.437255	-0.058327384	-0.78635702	1.0963188	-0.30154682	-0.74725627	1.0552282	0.18057677	-0.676341	0.8746085	-0.29123194	-0.54873597	0.90427846	0.20143938
124	0.492	-0.31226422	0.080440468	-0.13624533	-0.77467055	0.03885402	-0.030261116	-0.44731081	0.074931449	-0.15973229	-0.9111393	0.054182453	0.019178788	-0.43899162	0.10288679	-0.07613726	-0.89794888	0.085197027	-0.064125934	-0.49930444	0.030483413	-0.11145512	-0.96698144	0.033858311	-0.026638173	-0.5029381	0.45738439	-0.18704771	-0.80256453	0.44336518	0.07247081	-0.49120517	0.44114443	-0.067358473	-0.79132626	0.44799034	-0.058150408	-0.63707387	0.82337543	-0.24188741	-0.73410555	0.85355626	0.13092813	-0.60261806	0.93113048	-0.1660166	-0.64245354	0.94240665	0.074854671	-0.81727972	0.95392717	-0.087130589	-0.6398271	1.4023774	-0.20692599	-0.67968729	1.4053537	0.11485422	-0.74348427	1.4359577	-0.058833409	-0.78175478	1.095612	-0.30142498	-0.73978822	1.0532665	0.1811937	-0.67322325	0.873196	-0.29232547	-0.53952826	0.90431703	0.20082307
125	0.496	-0.29507528	0.084077238	-0.1329292	-0.77452356	0.038824209	-0.030299187	-0.42974364	0.074789295	-0.15768292	-0.91096743	0.054290125	0.019025782	-0.42274745	0.10343948	-0.074356281	-0.89760855	0.085267795	-0.064355051	-0.48074637	0.029119092	-0.10970667	-0.96691611	0.034185807	-0.026798752	-0.49649742	0.45527382	-0.18688798	-0.79860639	0.44252526	0.072245246	-0.48512351	0.43937219	-0.067099209	-0.78711165	0.44736913	-0.058143425	-0.63040009	0.82192667	-0.241723	-0.72897727	0.85242588	0.13091761	-0.59599023	0.92956627	-0.16595534	-0.63700036	0.94107455	0.07502228	-0.81104517	0.95232527	-0.087258844	-0.63389353	1.4007711	-0.20654816	-0.67359813	1.4037389	0.11522971	-0.73785808	1.4346553	-0.059000014	-0.77708402	1.0948572	-0.30133187	-0.7323012	1.0512484	0.18171502	-0.67001798	0.8717878	-0.29338011	-0.53037969	0.90433709	0.20024729
126	0.5	-0.2782401	0.087979264	-0.12954512	-0.77436481	0.038843314	-0.030306597	-0.41237758	0.074928618	-0.15569951	-0.91078853	0.054423414	0.01886316	-0.40680063	0.10428176	-0.072780875	-0.89732592	0.085401921	-0.064669118	-0.46242978	0.027978205	-0.10810008	-0.96684484	0.034540382	-0.026983651	-0.48986433	0.45325741	-0.18665339	-0.79469054	0.44165829	0.071976371	-0.47907783	0.43758522	-0.066769486	-0.78301076	0.44670133	-0.058203741	-0.62379565	0.8203888	-0.24155962	-0.72384569	0.85127334	0.13089486	-0.58934007	0.92794956	-0.16587487	-0.63158953	0.93971261	0.075200162	-0.8046038	0.95084537	-0.087079899	-0.62796857	1.3991427	-0.20616385	-0.66752287	1.4020789	0.11559501	-0.7320842	1.4333198	-0.058802375	-0.77238386	1.0940446	-0.30122129	-0.72479463	1.0491705	0.18214131	-0.66676529	0.87037648	-0.29440906	-0.52127585	0.90434429	0.19970315
127	0.504	-0.26178827	0.092129896	-0.12609248	-0.77420414	0.038886412	-0.030297325	-0.39526048	0.075331722	-0.15377732	-0.91063647	0.054598975	0.018685263	-0.39119226	0.10533773	-0.071314191	-0.89715002	0.085623103	-0.065127589	-0.44443545	0.027094061	-0.10660897	-0.96677525	0.034933394	-0.027194613	-0.48311221	0.45133227	-0.18637486	-0.79090299	0.44073964	0.071649172	-0.4730475	0.43579426	-0.066386466	-0.77917351	0.44596861	-0.058407747	-0.61721425	0.81877791	-0.24139172	-0.71869251	0.85008424	0.13084617	-0.58268322	0.92628607	-0.16578608	-0.6261863	0.93833241	0.075386407	-0.79826569	0.94937252	-0.086877197	-0.6220572	1.3974897	-0.20576443	-0.66142559	1.4003901	0.11597464	-0.72625261	1.4319324	-0.058478772	-0.76767219	1.0931832	-0.30105008	-0.71728562	1.0470414	0.18246869	-0.66353145	0.8689454	-0.29543545	-0.512194	0.90435215	0.19916748
128	0.508	-0.24579142	0.096447846	-0.1226169	-0.77405786	0.038900038	-0.030303438	-0.37846746	0.075965266	-0.15192204	-0.91052392	0.054831032	0.018493912	-0.3759569	0.10647242	-0.069833476	-0.89703359	0.085899368	-0.065686039	-0.42682938	0.026493986	-0.10521797	-0.96672375	0.035386369	-0.02744334	-0.47636592	0.44945314	-0.18606886	-0.78720827	0.43977969	0.071275228	-0.46701975	0.43400646	-0.065951403	-0.77556569	0.44519435	-0.058766214	-0.61061873	0.81710367	-0.24120757	-0.71350619	0.84885633	0.13076131	-0.57602168	0.92458606	-0.16568446	-0.62077163	0.93693833	0.075576861	-0.79240977	0.94781394	-0.086710633	-0.61616368	1.3958119	-0.2053459	-0.65526219	1.3986836	0.11638478	-0.72041883	1.4305028	-0.058121332	-0.76294652	1.0922931	-0.30080501	-0.70978744	1.0448705	0.18268878	-0.66035136	0.8674933	-0.29646814	-0.50312493	0.90437074	0.19863301
